<?xml version="1.0" encoding="UTF-8"?>
<svg id="Calque_1" data-name="Calque 1" xmlns="http://www.w3.org/2000/svg" viewBox="0 0 530 213">
  <defs>
    <style>
      .cls-1 {
        fill: #e30613;
        stroke-width: 0px;
      }
    </style>
  </defs>
  <path class="cls-1" d="m186.8.5c-.3.3-14,.7-30.4.9-32.2.4-81.6,1.4-119.4,2.4l-23.5.7-.3,3.7c-.2,2.8.1,3.7,1.5,4.1,1.7.4,1.7.5.1.6-2.7.2-2.3,3.9.5,4.4,2,.4,1.9.4-.4.6l-2.6.1-.8,15.9c-.4,8.8-.4,16.5,0,17,.3.6.1,1.1-.4,1.1-1.5,0-1.4,5.7.2,6.3.9.3.9.7-.2,2-1.1,1.4-1.1,1.7,0,1.7s1.1.2.1.8c-1.3.9-2.3,12.9-3.7,43.2-.4,8-1.1,14.8-1.6,15.1s-.9,3.9-.9,8c.1,4.1-.1,8.3-.3,9.4-.3,1.1-.8,8.5-1.1,16.5-.4,8-.9,17.2-1.1,20.5-.3,3.3-.7,10.3-1,15.5-.2,5.2-.7,12.3-1.1,15.7l-.6,6.1,33.8.1c25.7,0,34-.2,34.7-1.2.7-.9,1-.9,1.4,0,.6,1.6,51.8,1.9,52.8.3.7-1.2,4.5-1.3,4.5-.2,0,1.3,44.9,1.5,46.5.2.9-.8,1.5-.8,2,0,.9,1.5,7.5,1.3,7.5-.3,0-.8.4-.7,1,.3.9,1.3,1,1.3,1,0,0-1.2.2-1.3.9-.1.7,1.1.9,1.1,1.4,0,.4-1,.6-1,.6-.2.1,1.6,52.1,1.9,52.1.3,0-.6.9-1,2-1s2,.4,2,1c0,1.5,4.7,1.2,5.3-.3.4-1,.6-1,.6,0,.1,1.7,12.2,1.7,14,0,1.1-.9,1.4-.9,1.8,0,.6,1.5,5.3,1.8,5.3.3,0-.6.7-1,1.5-1s1.5.4,1.5,1c0,1.4,7.3,1.3,8.7-.1.8-.8,1.3-.8,1.7,0,1.1,1.7,43.6,1.5,43.6-.2,0-.8.4-.7,1,.3.9,1.3,1,1.3,1,0,0-1,.3-1.1.8-.4,1.1,1.7,105.3,1.9,106.4.2.6-1.1.8-1.1.8,0,0,.9,7.3,1.2,33.5,1.2,26.1-.1,33.4-.3,32.9-1.3-.5-.9-.3-.9.7,0,.9.9,5.1,1.3,13.2,1.3h11.9l-.7-5.3c-.4-2.8-1.2-5.8-1.9-6.6-.8-1.1-.8-1.5.1-1.8s1.1-2.1.7-6.1c-.6-7.3-1.4-24.4-1.3-30.1,0-2.5-.5-4.8-1.3-5.3-.8-.6-.9-1.1-.3-1.4,1.2-.5.7-18.6-.5-19.4-.8-.6-2.5-26.3-2.9-45.3-.1-5.6-.4-6.7-1.8-6.8-1.1,0-1.3-.3-.5-.6,1.4-.6,1.7-16.3.3-16.3-.5,0-1.1-4.2-1.4-9.3-1.3-29.3-1.7-33.8-3.2-35.3-.8-.9-1.5-2.1-1.4-2.7,0-.9.2-.8.6,0,.9,2.4,2.3,1.3,2.3-1.7,0-1.7-.4-3-1-3-.5,0-1-2.5-1-5.5,0-5.1-1.2-7.2-2.3-4.3-.4.9-.6.7-.6-.3-.1-1.3-1.4-1.6-6.3-1.8-3.5,0-17.5-.5-31.3-1.1-23.4-.9-35.4-1-97.3-1.4-13.3,0-24.2-.4-24.2-.8,0-1.2-143.2-.9-144.7.4-.9.7-1.3.7-1.3-.1,0-1.3-8.9-1.2-10.7.2-.9.6-1.3.6-1.3-.2C195,0,187.8-.5,186.8.5Zm130.7,1.4c.3.5.1,1.2-.5,1.6-.5.3-1-.1-1-.9,0-1.8.6-2.1,1.5-.7Zm-172.8,1.7c-.3.3-1.2.4-1.9.1-.8-.3-.5-.6.6-.6,1.1-.1,1.7.2,1.3.5Zm294.3.4c0,.5-.4,1-1,1-.5,0-1-.5-1-1,0-.6.5-1,1-1,.6,0,1,.4,1,1Zm-31.5,6.9c28.1.6,60.6,1.3,72.3,1.7,17.9.6,21.2.5,21.2-.7,0-1.1.2-1.1,1,.1.7,1.2,1.3,1.2,2.7.4,1.7-1,1.8-.5,1.5,8.7-.2,5.6.1,9.9.6,9.9s1.5,11.7,2.2,26,1.6,26,2,26,1,5.5,1.3,12.2c.4,6.8,1,17,1.3,22.8s.7,12.1.8,14,.3,7.4.4,12.2c.2,7.1.5,8.8,1.7,8.8,1.6,0,2,1.7,1.6,6-.2,1.4,0,7.1.4,12.7.6,8.6,1,10.3,2.3,10.4,1.5.1,1.5.2,0,.6s-1.6,1.5-1.1,10.4l.6,9.9-3.4.1h-22.4c-11.7.1-19.5.5-20.2,1.1-.9.7-1.7.7-2.5,0-1.5-1.1-13.7-1.1-15.5.1-.8.5-1.3.4-1.3-.2,0-1.5-7.7-1.4-8.3.1-.4.9-.8,1-1.4.2-1.2-1.5-41.5-1.7-42.5-.1-.6.9-.8.9-.8-.1,0-.9-4.3-1.2-18-1.2-16.1,0-20.9.7-16.7,2.3.6.3.2.6-1,.6-1.6.1-2.1-.3-1.7-1.4.5-1.3-1.8-1.5-17.2-1.4-12.3,0-18.3.4-19.3,1.2-1.2.9-1.3.9-.7-.1.6-.9-3.6-1.2-19.3-1.2s-20.1.3-20.1,1.2c0,1-.2,1-.8.2-1.1-1.8-181.2-1.9-182.5-.2-.7,1-1,1-1.4,0-.6-1.5-3.3-1.6-3.3-.1,0,.9-.4.9-1.4,0-.9-.8-14-1.1-45-1-24.1,0-44-.2-44.3-.5s.6-20.7,2.1-45.3c1.4-24.6,2.6-46.9,2.6-49.6s.5-4.7,1-4.7c.6,0,1-3.7,1-9,0-5,.4-9,.8-9,.7,0,2.4-25.1,3.8-56.5.6-13.4.8-14.2,4.2-14.9,1.5-.3,18.9-.8,38.7-1.1,19.8-.4,36.3-.9,36.7-1.1.3-.2,15.3-.4,33.2-.5,17.9,0,32.7-.3,33-.7.6-1,179.3-.4,241.1.7Zm119.5,173.1c0,.5-.4,1-1,1-.5,0-1-.5-1-1,0-.6.5-1,1-1,.6,0,1,.4,1,1Zm-418,21c0,.5-.2,1-.4,1-.3,0-.8-.5-1.1-1-.3-.6-.1-1,.4-1,.6,0,1.1.4,1.1,1Zm313,0c0,.5-.4,1-1,1-.5,0-1-.5-1-1,0-.6.5-1,1-1,.6,0,1,.4,1,1Zm-384.3.6c-.3.3-1.2.4-1.9.1-.8-.3-.5-.6.6-.6,1.1-.1,1.7.2,1.3.5Zm107,0c-.3.3-1.2.4-1.9.1-.8-.3-.5-.6.6-.6,1.1-.1,1.7.2,1.3.5Z"/>
  <path class="cls-1" d="m183.8,23.7c-2.7.2-4.9.8-4.9,1.4-.1.5-.2,1.5-.3,2.1-.4,2.7,2.7,4.8,7.1,4.8,2.7,0,4.2-.4,3.8-1-.8-1.3,2.8-1.3,4.1,0,.7.7,8,.9,20,.8l18.9-.3v-8l-22-.1c-12.1,0-24.1.1-26.7.3Z"/>
  <path class="cls-1" d="m252,27v4h17v-8h-17v4Z"/>
  <path class="cls-1" d="m297,26.9c0,3.9.1,4,4.3,4.6,2.3.4,6,.5,8.2.3,3.9-.3,4-.4,4-4.3v-4l-8.2-.3-8.3-.3v4Z"/>
  <path class="cls-1" d="m117,28.5v4.5h17.8c22,0,22.2-.1,22.2-5.1v-3.9h-40v4.5Z"/>
  <path class="cls-1" d="m362.9,26.7c-.5,1.6-1.2,3.4-1.4,4-.3,1,2.5,1.3,12,1.3,6.9,0,12.5-.3,12.5-.7s-.5-2.2-1.2-4l-1.2-3.3h-9.8c-9.8,0-9.9,0-10.9,2.7Z"/>
  <path class="cls-1" d="m435,29v4h8c7.8,0,8-.1,8-2.4,0-5.1-.7-5.6-8.6-5.6h-7.4v4Z"/>
  <path class="cls-1" d="m51,27c0,.5.1,1.1.2,1.2.1.2-.4,1.2-1,2.4-1.7,3.2-.2,3.9,8.1,3.6l7.7-.4v-7.8h-7.5c-4.3,0-7.5.4-7.5,1Z"/>
  <path class="cls-1" d="m245.7,33.7c-1.5,1.5-.5,2.3,2.8,2.3s3.5.1,3.5,4v4h17v-4c0-3.8.2-4,3-4,2,0,3-.5,3-1.5,0-1.3-2.3-1.5-14.3-1.5-7.9,0-14.7.3-15,.7Z"/>
  <path class="cls-1" d="m293,34.5c0,.8.9,1.5,2,1.5,1.7,0,2,.7,2,4v4h17v-3.8c0-2.1.5-4.3,1-4.8.8-.8-1.4-1.3-7.2-1.7-12.7-1-14.8-.9-14.8.8Z"/>
  <path class="cls-1" d="m115.8,34.7c-8.9.4-12.5,2.3-4.3,2.3h4.5v8h7.9c8.3,0,9.1-.5,9.1-5.1,0-1.7.8-1.9,6.3-1.9,12,0,21.7-1.2,21.7-2.6,0-1.1-3.5-1.4-18.2-1.2-10.1.1-22.2.4-27,.5Z"/>
  <path class="cls-1" d="m170,34.9c0,1,14.4,2.4,20.6,2.1,6.1-.4,6.4-.3,6.4,3.5v3.5h17v-7h9.3c6.6,0,9.9-.4,11.3-1.5,1.7-1.3-1.9-1.4-31.3-1.5-19.4,0-33.3.4-33.3.9Z"/>
  <path class="cls-1" d="m321,35c0,.5,1.1,1,2.5,1s2.5-.5,2.5-1c0-.6-1.1-1-2.5-1s-2.5.4-2.5,1Z"/>
  <path class="cls-1" d="m344.5,35c.3.5,4,1,8.1,1h7.4l-1.5,3.6c-.8,2-1.5,4-1.5,4.5s3.8.9,8.5.9c7.4,0,8.5-.2,8.5-1.8q.1-1.6,1.4,0c1.1,1.4,2.9,1.8,9,1.8,8,0,8.9-.6,6.1-4.4-2.3-3.1-1.8-3.6,3-3.6,3.3,0,4.5-.4,4.5-1.5,0-1.3-3.7-1.5-27.1-1.5-17.7,0-26.8.3-26.4,1Z"/>
  <path class="cls-1" d="m405.5,35c-.8,1.3-.1,2.4,1.4,1.9.6-.3.7-1,.2-1.8-.6-1-1-1-1.6-.1Z"/>
  <path class="cls-1" d="m430,36c0,.5,1.5,1,3.4,1,3.3,0,3.5.2,4.2,4.5l.6,4.5h14.8v-8h6.9c9.8,0,9.7-1.6-.2-2.3-12.7-1-29.7-.8-29.7.3Z"/>
  <path class="cls-1" d="m35,37.5c0,1.2,1.5,1.5,7.5,1.5,6.9,0,7.5.2,6.7,1.7-.4,1-.7,2.4-.6,3,.1.7.2,1.8.3,2.3.1.7,3,1,7.9.8l7.7-.3.3-4.3.3-4.2h4.5c2.4,0,4.4-.5,4.4-1,0-.6-7.2-1-19.5-1-16.7,0-19.5.2-19.5,1.5Z"/>
  <path class="cls-1" d="m179,46.7c0,.5,4,.7,8.9.5l9-.3.3,4.3.3,4.3,7,.3c7.7.3,9.5-.8,9.5-5.9,0-2.5.4-2.8,3.8-3.2,2-.2-5.9-.4-17.5-.5-11.7-.1-21.3.1-21.3.5Z"/>
  <path class="cls-1" d="m246.3,46.7l6.7.4v7.9h61v-3.9c0-3.7.2-4,3.3-4.4,1.7-.2-2.1-.5-8.5-.5l-11.8-.2v6h-13.5c-7.5,0-13.5-.4-13.5-.9s-.3-1.6-.6-2.4c-.3-1,.2-1.7,1.3-2,1-.3-5.6-.4-14.7-.4-9.1.1-13.5.2-9.7.4Z"/>
  <path class="cls-1" d="m352.5,47c2.2.4,3.5.8,2.9.9-.7,0-1.4,1.1-1.7,2.3-.2,1.3-.8,3.1-1.2,4-.6,1.6,0,1.8,7.1,1.8,4.4,0,8.4-.4,9-.8s1.5-2.2,1.9-4c.6-3,1-3.3,3.8-3,2.6.2,3.2.7,3.1,2.5-.1,1.3.3,2.3.7,2.3.5,0,.8.6.6,1.2-.1,1,2.2,1.4,8.7,1.6,7.8.2,8.8.1,8.2-1.4-2.4-6.2-2.3-6.4,4-6.6l5.9-.1-7.5-.7c-9.8-1-50.7-.9-45.5,0Z"/>
  <path class="cls-1" d="m108,48c0,.5,1.7,1,3.8,1h3.8l-.4,4-.4,4h9.9c16.5,0,28.3-1.1,28.3-2.6,0-1.1-2.3-1.4-10.7-1.2-7.8.1-10.8-.2-10.7-1,.1-.7.2-1.8.3-2.6,0-1,1.6-1.6,4.4-1.9,2.3-.2-3.1-.4-12-.5-10.3-.1-16.3.2-16.3.8Z"/>
  <path class="cls-1" d="m428,47.9c0,.7,1.9,1.1,5,1.1h5v8h16v-3.9c0-2.9.5-4.1,1.8-4.4.9-.3-.8-.5-3.9-.6-3.1,0-9.7-.4-14.7-.7-6.7-.5-9.2-.4-9.2.5Z"/>
  <path class="cls-1" d="m37,49l-8.5.6,9.6.2,9.7.2-.2,3.7-.1,3.8h16l.3-4.2.3-4.2,6.7-.4c3.7-.2-.5-.3-9.3-.3s-19.8.3-24.5.6Z"/>
  <path class="cls-1" d="m200.5,58c-7.7.3-11.9.7-9.2.8,4.5.2,4.7.3,4.7,3.2v3h17v-3c0-2.8.2-3,4-3,2.2,0,4-.5,4-1,0-.6-1.5-.9-3.2-.8-1.8.1-9.6.5-17.3.8Z"/>
  <path class="cls-1" d="m244,58c0,.5,2,1,4.4,1,4,0,4.4.2,5,3l.6,3h61v-3c0-2.7.3-3,3.1-3,1.7,0,2.8-.4,2.4-1s-14.3-1-38.6-1-37.9.4-37.9,1Z"/>
  <path class="cls-1" d="m107,59c-2,.6-1.5.8,2.6.9l5.1.1-.5,3.1-.4,3,12.3-.2c6.8-.1,12.7-.4,13.2-.6.4-.2.2-1.3-.3-2.4-.6-1-.7-1.9-.2-1.9s1.5,1.1,2.2,2.5c1.4,2.6,2.3,2.8,8.3,1.9,3.3-.6,3.7-1,3.7-3.5q0-2.8,7.3-3.2c3.9-.1-5.8-.3-21.8-.4-15.9-.1-30.1.3-31.5.7Zm10,4.6c0,.8-.4,1.2-1,.9-.5-.3-1-1-1-1.6,0-.5.5-.9,1-.9.6,0,1,.7,1,1.6Z"/>
  <path class="cls-1" d="m346,58.9c2.5.3,4.5,1.1,4.6,1.8.3,4.4.1,4.3,9.2,4.3,4.8,0,8.3-.4,7.7-.8-1.4-1-1.7-3.2-.4-3.2.5,0,.7-.5.4-1-.4-.6,1.9-1,6.3-1,6.8,0,7,0,7.5,2.8.6,2.8.8,2.9,8.8,3.5,9.1.7,10.4.4,8.9-2.3-1.8-3.4-1.1-3.9,5.8-4.3,3.7-.2-9-.3-28.3-.3-19.2-.1-33,.2-30.5.5Z"/>
  <path class="cls-1" d="m425,58.9c0,.7,2.3,1.1,6.4,1.1,6.3,0,6.5,0,7.1,3,.5,2.2,1.2,3,2.8,3,1.2,0,4.5.3,7.4.6l5.2.7.3-3.4.3-3.4,9.3.4c6.2.2,9.2-.1,9.2-.8,0-.8-5.5-1.1-17.9-1.1-9.8,0-20.6-.3-24-.6-4.3-.5-6.1-.3-6.1.5Z"/>
  <path class="cls-1" d="m52.5,60c-8.2.3-13.1.7-10.9.8,4,.2,4.1.3,3.9,3.2-.2,2.6.1,3,2.1,3,1.3,0,2.4-.5,2.4-1,0-.6.5-1,1.1-1,.5,0,.7.4.4,1-.4.6,1.5,1,4.9,1q5.6,0,5.6-3c0-2.9.1-3,5.1-3,3.1,0,4.8-.4,4.4-1-.3-.6-1.4-.9-2.3-.8s-8.4.5-16.7.8Z"/>
  <path class="cls-1" d="m77,60c0,.5,1.1,1,2.4,1,1.4,0,2.8-.5,3.1-1,.4-.6-.7-1-2.4-1s-3.1.4-3.1,1Z"/>
  <path class="cls-1" d="m242,66.7c-9.2.7-8.3,2.3,1.3,2.3,8.6,0,8.7,0,8.7,2.5s.1,2.5,8.5,2.5,8.5,0,8.5-2.5v-2.5h29v2.5c0,2.5.1,2.5,8.5,2.5s8.5,0,8.5-2.5c0-2.2.4-2.5,3.5-2.5,1.9,0,3.5-.4,3.5-.8,0-1.7-60.2-2.8-80-1.5Z"/>
  <path class="cls-1" d="m125.3,67.7c-11.1.2-18.3.7-18.3,1.3s1.6,1,3.6,1c3.3,0,3.6.2,3.2,2.5l-.5,2.5h8.3c7.8,0,8.3-.1,8.6-2.3.3-2.1.7-2.2,13.6-2.5,10.8-.2,13.2-.5,13.2-1.7s-1.4-1.5-6.7-1.3c-3.8.2-15,.4-25,.5Z"/>
  <path class="cls-1" d="m190,68c0,.5,1.3,1,2.9,1,2.5,0,3,.4,3.3,2.7.4,3.3,2.9,3.9,11.5,2.8,4.8-.6,5.3-.9,5.3-3.1,0-1.7.5-2.4,2-2.4,1.1,0,2-.5,2-1,0-.6-5.2-1-13.5-1s-13.5.4-13.5,1Z"/>
  <path class="cls-1" d="m333,68c0,.6,3.5,1,8.5,1h8.5l-1,2.6c-.6,1.4-1,2.7-1,3,0,.2,12.6.4,28,.4,27.8,0,28.1,0,27-2-.9-1.7-.8-2.1.7-2.6,4.5-1.5,4.4-1.8-.7-2.5-8.8-1.1-70-1.1-70,.1Z"/>
  <path class="cls-1" d="m46.5,69.1c-12.1.3-22.1.7-22.2.8-.2,0-.3.6-.3,1.3,0,.8,2.8.9,10,.5,6.1-.4,10-.2,10.1.3.1.6.3,1.4.4,2,.1.5.3,1.5.4,2.1.1.8,1.9.9,5.9.5,3.1-.4,6.7-.7,8-.8,1.6,0,2.2-.6,2.2-2.4,0-2.4.1-2.4,11-2.4,9.1,0,11-.3,11-1.5,0-1.7,1.7-1.6-36.5-.4Z"/>
  <path class="cls-1" d="m421.5,69c.3.5,1.7,1,3.1,1,1.3,0,2.4-.5,2.4-1,0-.6-1.4-1-3.1-1s-2.8.4-2.4,1Z"/>
  <path class="cls-1" d="m432,69c0,.5,1.6,1,3.5,1,3,0,3.5.3,3.5,2.4,0,2.7,2.8,3.6,11.1,3.6,4.6,0,4.9-.2,4.9-2.5s.4-2.5,4.5-2.5c3.3,0,4.5-.4,4.5-1.5,0-1.3-2.4-1.5-16-1.5-10,0-16,.4-16,1Z"/>
  <path class="cls-1" d="m180,77.1c0,.9,2.4,1,8,.6,7.9-.5,8.1-.5,7.8,1.6s.1,2.2,7.7,2.2,8-.1,8.3-2.2c.3-1.9,1.1-2.3,5.5-2.6,2.9-.2-4.4-.4-16-.5-15.4-.1-21.3.1-21.3.9Z"/>
  <path class="cls-1" d="m248.8,76.7c2.4.3,3.2.9,3.2,2.4,0,1.7.8,1.9,8.5,1.9s8.5-.2,8.5-1.9c0-1.1.8-2.2,1.8-2.4.9-.3-4.4-.4-11.8-.4s-12,.2-10.2.4Z"/>
  <path class="cls-1" d="m295.8,76.7c1.4.3,2.2,1.2,2.2,2.4,0,1.7.8,1.9,8.5,1.9s8.5-.2,8.5-1.9c0-1.4.8-2.1,2.8-2.4,1.5-.2-3.4-.4-10.8-.4s-12.5.2-11.2.4Z"/>
  <path class="cls-1" d="m341.3,76.7c4.1.4,4.7.7,4.7,2.6v2.2l31.1.1c17.2,0,30.7-.2,30-.4-.6-.2-1.1-1-1.1-1.8,0-1,1.5-1.4,5.3-1.6,2.8-.1-1.1-.5-8.8-.9-14.1-.7-70-.9-61.2-.2Z"/>
  <path class="cls-1" d="m101,78c0,.6,2.7,1,6,1,4.7,0,6,.3,6,1.5,0,1.3,2.9,1.5,21.3,1.3,14.7-.2,17.3-.3,8.5-.5-10.2-.3-12.8-.6-12.8-1.8,0-1,1.6-1.5,5.3-1.8,2.8-.2-3.7-.4-14.5-.5-12.7-.1-19.8.2-19.8.8Z"/>
  <path class="cls-1" d="m430,78c0,.5,2.3,1,5,1,4.3,0,5,.3,5,2,0,1.9.6,2,20.8,1.8,14.9-.2,17.1-.3,8-.5-10.5-.3-12.8-.6-12.8-1.8s1.6-1.5,7.3-1.7c5.8-.1,4.9-.3-4.8-.8-18.8-1.1-28.5-1.1-28.5,0Z"/>
  <path class="cls-1" d="m34,79c0,.5,2.3,1,5,1,4.3,0,5,.3,5,2,0,1.9.5,2,12.3,1.4,12.4-.7,16.8-1.4,8.4-1.4-3.4,0-4.7-.4-4.7-1.5,0-1,1.7-1.5,6.8-1.8,3.7-.2-2.2-.4-13-.5-12.7-.1-19.8.2-19.8.8Z"/>
  <path class="cls-1" d="m73.8,82.7c2.3.2,6.1.2,8.5,0,2.3-.2.4-.4-4.3-.4s-6.6.2-4.2.4Z"/>
  <path class="cls-1" d="m198.8,83.7c-4.9.2-8.8.8-8.8,1.3,0,.6,1.1,1,2.5,1,1.6,0,2.5.6,2.5,1.5,0,1.2,1.6,1.5,8.5,1.5s8.5-.3,8.5-1.5c0-.8.9-1.5,2-1.5s2-.7,2-1.5c0-1.1-1-1.4-4.2-1.3-2.4.1-8.2.4-13,.5Z"/>
  <path class="cls-1" d="m243,84.5c0,1.1,1.1,1.5,4.5,1.5s4.5.4,4.5,1.5c0,1.2,1.6,1.5,8.5,1.5s8.5-.3,8.5-1.4c0-1,1.3-1.6,4-1.8,2.2-.2,4-.8,4-1.3,0-.6-6.5-1.1-17-1.3-14.7-.2-17,0-17,1.3Z"/>
  <path class="cls-1" d="m290.7,83.6c-1.3,1.3.5,2.4,3.9,2.4,2.4,0,3.4.5,3.4,1.5,0,1.2,1.6,1.5,8.5,1.5s8.5-.3,8.5-1.5c0-.9,1-1.5,2.6-1.5s2.4-.5,2.2-1.3c-.3-.9-4.4-1.3-14.4-1.5-7.7-.1-14.3,0-14.7.4Z"/>
  <path class="cls-1" d="m100,85.5c0,1.2,1.4,1.5,6.5,1.5,5.6,0,6.4.2,5.8,1.7s.6,1.6,13.8,1c7.9-.4,17.4-.7,21.2-.7,5.3,0,6.7-.3,6.7-1.5s1.4-1.5,6.4-1.5c3.6,0,6.8-.5,7.1-1,.4-.7-11-1-33.4-1-29.6,0-34.1.2-34.1,1.5Z"/>
  <path class="cls-1" d="m332,85c0,.5,2.5,1,5.6,1,4.6,0,5.5.3,5,1.5-.4,1.3.9,1.5,8.8,1.5,7.4,0,9.5-.3,10-1.5.4-1.2,3.1-1.5,15-1.5s14.5.3,15,1.5c.4,1.2,2.5,1.5,10.1,1.5,5.3,0,9.4-.4,9.1-.9s.3-1.1,1.4-1.4,2-1,2-1.6c0-.8-12-1.1-41-1.1-26.7,0-41,.3-41,1Z"/>
  <path class="cls-1" d="m429,85.5c0,1.2,1.3,1.5,6,1.5s6,.3,6,1.5,1.7,1.5,9.3,1.5c5,0,14.3.3,20.5.7,11.1.6,11.2.6,11.2-1.6,0-1.9.4-2.1,3.4-1.6,3.3.7,6.2-1,3.4-1.9-.7-.2-14.5-.7-30.5-1-25.7-.5-29.3-.4-29.3.9Z"/>
  <path class="cls-1" d="m35.8,85.7c-14.2.4-16.1,2.3-2.3,2.3,7.6,0,9.7.3,10.1,1.5.8,2,12.4,2.2,12.4.2,0-.8.3-.8.9.2,1.3,2.1,27.1.8,28.7-1.4.6-.8,1.9-1.5,2.8-1.5s1.6-.5,1.6-1c0-1-24.2-1.1-54.2-.3Z"/>
  <path class="cls-1" d="m242,91c0,.5,2.3,1,5,1s5,.4,5,1,3.5,1,8.5,1,8.5-.4,8.5-1,1.4-1,3-1c1.7,0,3-.5,3-1,0-.6-6.2-1-16.5-1s-16.5.4-16.5,1Z"/>
  <path class="cls-1" d="m294,91c0,.5.9,1,2,1s2,.4,2,1c0,1.6,15.9,1.3,17.5-.4.8-.7,1.1-1.6.8-2-1.1-1-22.3-.7-22.3.4Z"/>
  <path class="cls-1" d="m114,92c-5.8.3-8.6.7-6.2.8,2.3.1,4.2.6,4.2,1.2s7.7,1,21,1,21-.4,21-1,1.1-1,2.4-1c1.4,0,2.8-.5,3.1-1,.7-1.1-26.8-1.1-45.5,0Z"/>
  <path class="cls-1" d="m189.8,91.7c2.8.2,5.2.8,5.2,1.4,0,.5,3.8.9,8.5.9s8.5-.4,8.5-.9c0-.6,1.9-1.2,4.3-1.4,2.3-.2-3.9-.3-13.8-.3s-15.6.1-12.7.3Z"/>
  <path class="cls-1" d="m337,91.7c1.9.3,4,.8,4.5,1.3,1.5,1.2,17.7,1,19.3-.3s31.6-.1,32,1.3c.5,1.3,19.2,1.3,19.2,0,0-.6,1.4-1,3.1-1s2.8-.4,2.4-1-15.4-.9-42.3-.8c-22.9,0-40.1.3-38.2.5Z"/>
  <path class="cls-1" d="m41,93c-2.9.4-3.5.8-1.8.8,1.5.1,3,.7,3.4,1.4.9,1.3,41.5.3,42.3-1.1.4-.5,2-1.1,3.6-1.4,1.7-.2-7.3-.4-20-.4s-25,.3-27.5.7Z"/>
  <path class="cls-1" d="m436,92.7c2.4.3,4.7.8,5,1.2.7,1.2,40.9,2.1,41.6,1,.3-.5,4-.9,8.2-.9,5.3,0,7.2-.3,6.2-1-.9-.6-14.2-.9-33.5-.8-17.6.1-30,.3-27.5.5Z"/>
  <path class="cls-1" d="m102.5,112.1c-1.6.7-3.7,1.8-4.6,2.5-.8.8-2.3,1.4-3.2,1.4s-1.7.4-1.7,1c0,.5-1,1.9-2.3,3.2-3.5,3.6-8.9,13-9.4,16.3-.8,6-.9,14.1-.2,16.7.4,1.6.4,2.8,0,2.8s-.8.7-.8,1.5.4,1.5.9,1.5.6.4.3,1c-.3.5-.2,1,.4,1,.5,0,.8.9.6,2s0,2,.6,2c.5,0,.9.8.9,1.8,0,2.3,6.3,10.9,6.8,9.4.2-.7,1.1-1.2,2-1.1,1.1,0,1.2.2.5.6-.7.2-1.3.9-1.3,1.4,0,1.1,9.3,5.9,11.5,5.9.8,0,1.5.4,1.5,1,0,1.5,13.7,1.3,14.3-.3.4-.9.6-.9.6,0,.1,1.5,3.1,1.8,3.1.3,0-.6.9-1,2-1,3.5,0,12.4-5.6,11.4-7.1-.3-.5-.2-.8.3-.7,1.8.6,7.1-5.1,9.3-9.8,3.6-8.1,3.7-14,.4-21.5-1.5-3.5-3.1-6.6-3.5-6.9s-1-2-1.4-3.8c-.3-1.7-1.1-3.2-1.6-3.2s-.9-.8-.9-1.8-.9-2.4-1.9-3.2c-1.1-.7-2.3-3.1-2.6-5.2-.5-2.5-1.2-3.8-2.3-3.8-.8,0-1.2-.3-.9-.7.4-.3-.3-1.3-1.5-2.2-2.8-1.9-22.8-2.6-27.3-1Zm20.9,17.3c5.2,3.1,7.9,9.8,7.8,19.2-.1,6.2-3,15.4-4.9,15.4-.4,0-2.1,1.1-3.7,2.5-2.4,2-4,2.5-8.7,2.5-5.3,0-6.2-.3-9.4-3.4-2-1.9-4.2-5.1-5-7-1.7-4.1-2-14.4-.5-19.8,1.2-4.3,5.3-9.6,8.4-10.8,4.3-1.8,11.8-1.1,16,1.4Zm-39,6.2c.3.8.2,1.2-.4.9s-1-1-1-1.6c0-1.4.7-1.1,1.4.7Zm1.6,15.9c0,1.4-.2,2.5-.4,2.5s-.6-1.1-.8-2.5c-.3-1.4-.1-2.5.3-2.5.5,0,.9,1.1.9,2.5Zm51,13.5c0,.5-.9,1-2.1,1-1.1,0-1.7-.5-1.4-1,.3-.6,1.3-1,2.1-1s1.4.4,1.4,1Zm-31,11c0,.5-.2,1-.4,1-.3,0-.8-.5-1.1-1-.3-.6-.1-1,.4-1,.6,0,1.1.4,1.1,1Zm14.5,0c-.3.5-1.2.7-2,.3-2.1-.7-1.9-1.3.6-1.3,1.1,0,1.8.4,1.4,1Zm7.3-.3c-1,.2-2.6.2-3.5,0-1-.3-.2-.5,1.7-.5s2.7.2,1.8.5Z"/>
  <path class="cls-1" d="m213.7,111.7c-.3.5-.8,2.5-1.2,4.6-.4,2-1,3.7-1.4,3.7s-.8.7-.9,1.5-.3,2.2-.4,3-.6,1.5-1.1,1.5c-.6,0-.7.3-.4.7.4.3,0,1.5-1,2.5-1.5,1.7-1.5,1.8.4,1.8,2.4,0,5.4,2.9,3.2,3.1-.8.1-2,.1-2.6,0-.7-.1-1.3.3-1.3.9,0,.5-.7,1-1.5,1-1.4,0-1.9,1.5-1.7,4.9,0,.8-.6,2-1.4,2.8-1.4,1.4-1.8,3.4-1.4,6.2.1.8-.4,1.8-1.2,2.3-1,.7-.9,1.1.6,2.3q1.9,1.5-.2,1.5c-1.2,0-2.2.4-2.2,1,0,3.1-3.2-.8-3.5-4.2,0-.3-.3-1-.7-1.4-.5-.4-.8-1.6-.8-2.7,0-1.7-2-6.9-5.1-12.9-.5-1-.9-2.8-1-4,0-1.3-.8-4.3-1.8-6.8-1.5-3.6-2-4.1-2.4-2.5-.4,1.2-.5.8-.3-.9.2-1.6,0-4.4-.6-6.2l-.9-3.4h-25l.1,17.5c.1,15.6.3,17.5,1.8,17.6,1.1,0,1.2.2.5.6-1.5.6-1.7,3.3-.3,3.3.6,0,1,.4,1,1,0,.5-.6,1-1.2,1-.9,0-1.3,1.8-1.3,5.9s.3,5.7,1.3,5.4c.6-.3,1.2,0,1.2.6s-.7,1.1-1.5,1.1c-2.2,0-1.8,3.1.4,3.7,1.6.4,1.9,1.2,1.7,4-.2,1.9-.9,3.9-1.6,4.3-.8.5-.4,1,1.2,1.4,1.4.4,1.8.9,1.1,1.3-2.2.8-1.4,2.3,1.2,2.3,1.4,0,2.5-.5,2.5-1,0-.6.7-.6,1.9.1,2.4,1.6,5.1.5,5.1-2,0-2.1-3.9-3.9-5.9-2.7-.5.4-1.2.2-1.6-.4s.4-1,1.9-1c5.6,0,5.7-.1,5.5-14.6,0-9-.5-13.4-1.2-13.8-.9-.3-.8-.5.1-.5.8-.1,1.2-1.9,1.2-5.4v-5.2l2.2,3.5c1.2,1.9,2.1,3.8,2,4.2-.1.5.2.8.6.8.5,0,.9.6,1,1.2,0,.7.3,2.3.6,3.5.3,1.3.8,3.2,1,4.2.3,1,1.1,3.2,1.9,4.8.8,1.5,2.2,5.4,3.1,8.6s2.3,6,3,6.3c.8.3,1.2,1.3.9,2.4-.3,1,0,2.1.5,2.4.6.3.8,1.5.5,2.6-.5,1.8,0,2,3.8,2,2.4,0,6.1-.3,8.1-.6,3.5-.6,3.9-1,5.5-6,.9-3,2-5.4,2.4-5.4s1-1.5,1.4-3.3c.3-1.7,1.3-4.9,2.3-7.1,1.5-3.5,1.5-3.9-.1-4.7-.9-.5-1.4-1.6-1-2.5.4-1.1.9-1.2,1.9-.4,1,.9,1.5.3,2.3-2.7.6-2.1,1.1-5.4,1.2-7.3,0-1.9.3-2.9.6-2.1s1.2-.1,2.3-2.5l1.8-3.9.1,11.5c.1,7.8.4,11,1.1,10,.6-1,1-1.1,1-.3,0,.7.7,1.3,1.6,1.3.8,0,1.2-.5.9-1-1-1.5.3-1.2,2.5.7,2.5,2.2,2.5,2.9.1,2.9-1.1,0-1.7-.4-1.5-.8.3-.4,0-.8-.6-.8-.8,0-1,.9-.6,2.5.8,3.1.3,3.1-2.4.3l-2.1-2.2.2,11.7.1,11.7h16.7l-.2-35.3-.2-35.2-11.7-.3c-6.4-.1-11.9.1-12.1.5Zm-47.7,10.4c0,.5-.6.6-1.3.3-.8-.3-1.4-1.1-1.4-1.9,0-1.1.4-1.2,1.4-.4.7.6,1.3,1.5,1.3,2Zm60.5,6.9c.4.6-.6,1-2.2,1-2.2,0-2.5-.2-1.3-1,1.9-1.2,2.7-1.2,3.5,0Zm-37.5,41.6c0,.2-.7.4-1.5.4s-1.5-.4-1.5-1c0-.5.7-.7,1.5-.4.8.4,1.5.8,1.5,1Zm5,5.4c0,.5-.2,1-.4,1-.3,0-.8-.5-1.1-1-.3-.6-.1-1,.4-1,.6,0,1.1.4,1.1,1Z"/>
  <path class="cls-1" d="m248,146.4v35.6h17.2l-.2-8.2c-.2-4.6-.2-9.8-.1-11.6l.1-3.2h7.9c4.4,0,8.3-.5,8.6-1,.3-.6,1.3-1,2.1-1,2.8,0,10.6-4.3,11.6-6.4.5-1.2,1.8-3.7,2.9-5.6,2.7-5,2.7-16.8-.2-22.7-1.1-2.4-2.5-4.3-2.9-4.3-.5,0-1.1-.8-1.4-1.8-1.2-3.5-6.3-4.5-26.3-5l-19.3-.4v35.6Zm26.8-21.4c1.3,0,3.4,1.1,4.7,2.5,3.5,3.5,3.6,11.4.1,14.8-1.4,1.4-2.2,2.9-1.8,3.3.4.5-.1.2-1-.5-1.5-1.1-1.8-1.1-1.8,0s-.3,1.1-1.1-.1c-.9-1.2-1.2-1.3-1.6-.1-.5,1.1-.7,1.1-1.4,0-.6-1-.9-1.1-.9-.2,0,.7-1.1,1.3-2.5,1.3h-2.5v-22.3l3.8.7c2,.3,4.7.6,6,.6Zm-22.8,9.5c0,.8-.2,1.5-.4,1.5s-.6-.7-1-1.5c-.3-.8-.1-1.5.4-1.5.6,0,1,.7,1,1.5Zm38,10.5c0,.5-.7,1-1.6,1-.8,0-1.2-.5-.9-1,.3-.6,1-1,1.6-1,.5,0,.9.4.9,1Z"/>
  <path class="cls-1" d="m324.8,111.6c-.5.4-.8,1.6-.8,2.6s-.3,1.8-.8,1.8c-1.1,0-3.2,7.7-2.6,9.7.5,1.5.4,1.6-.5.3-.6-.8-1.1-1.3-1.2-1-.6,3.6-.9,4.4-1.6,4.9-.5.3-.8,1.3-.8,2.1.1.8-.3,2.5-.9,3.8-.7,1.8-.6,2.6.5,3.3,1.2.7,1.1.9-.2.9-1.9,0-3.7,3.5-6.9,13.5-1.3,3.8-2.6,7.2-3,7.5-.6.5-7,18.9-7,20.2,0,.5,4.2.8,9.3.8h9.4l1.6-6c1.7-5.9,1.8-6,5.2-6,3.1,0,3.5-.3,3.6-2.8l.1-2.7,1,2.7c.8,2.4,1.4,2.7,4.2,2.4,1.7-.3,3.6-.6,4.1-.7.6-.2,2,0,3.3.5,1.5.5,2.7.2,3.7-.8,2.1-2,4.3-1.1,4.3,1.8,0,1.3.5,4.7,1.3,7.5,1.2,4.8,3.1,6.6,4.2,3.8.4-.9.7-.9,1.5.1.6.9,2.9,1.2,7.3,1l6.4-.3-.3-3c-.2-1.6-.7-3.2-1-3.5-.8-.5-1.4-2.7-1.5-4.8,0-1.4-1.7-1.7-1.7-.2,0,.5-1.1,1-2.5,1s-2.5-.5-2.5-1c0-.6-.9-1-2-1s-2-.4-2-1c0-.5,1.9-.7,4.3-.5,4.1.4,4.4.3,4.3-1.9-.1-1.3-.6-3-1.2-3.7-.6-.8-1-2.1-.9-2.9s-.3-2.4-.9-3.5c-.9-1.9-1-1.8-2.3,1q-1.4,3-.8.2c.6-2.8-.9-3.8-1.9-1.2-.3.8-1,1.5-1.6,1.5-.7,0-.7-.5.2-1.5,3.1-3.4,3.8-4.5,3.8-5.8,0-2.4-3.2-10.7-4.1-10.7-.5,0-.9-.6-.9-1.3.1-.6-1.9-6.9-4.2-14l-4.3-12.7h-5.6c-3.1,0-7.6-.3-10-.6s-4.7-.2-5.1.2Zm10.2,20.1c0,2.3,2.3,8.6,3.7,10.1.6.7,1.5,3.2,1.9,5.7.3,2.5,1,4.8,1.5,5.1,2.3,1.4-.9,2.4-7.7,2.4-5.9,0-7.4.3-7.4,1.5,0,.8-.4,1.5-.9,1.5s-.6-1.1-.1-2.8c2.7-8.6,2.9-10.4,1.4-11.9-1.8-1.9-1-3,1-1.4,1.1.9,1.5.7,2.1-1.1.4-1.3.8-3,.9-3.8.9-5.6,3.6-9.7,3.6-5.3Zm-11,22.3c0,.5-.7,1-1.5,1s-1.5-.5-1.5-1c0-.6.7-1,1.5-1s1.5.4,1.5,1Zm.7,5.6c-.3.3-1.2.4-1.9.1-.8-.3-.5-.6.6-.6,1.1-.1,1.7.2,1.3.5Zm35.9,8.1c-1.1,1.1-1.7-.4-.9-2.3.7-1.8.8-1.8,1.1-.1.2,1,.1,2.1-.2,2.4Zm-8.9-.7c.3,1.1.9,2,1.4,2s.9.9.9,2,.5,2,1.2,2c.6,0,.8.3.5.6-.4.4-1.3.1-2.2-.6-1.2-1-1.5-1-1.5.1-.1,1-.4.8-1.1-.4-.5-.9-.7-2.2-.4-2.7s.1-1.9-.5-3c-.8-1.5-.8-2,.1-2,.6,0,1.3.9,1.6,2Z"/>
  <path class="cls-1" d="m44.7,113.8c-2.9,1.1-7,3.9-10.8,7.6-8.2,7.8-10.8,14.8-10.9,28.5,0,13.1,2,19.2,8.5,25.4,2.8,2.7,7,5.5,9.7,6.5,2.6.9,4.4,2,4.2,2.4-.3.4,4.9.8,11.5.8s12.1-.4,12.1-.8,1.5-1.2,3.3-1.7c3.1-1,3.2-1.2,3.5-6.9.3-4.9,0-6.2-1.9-7.9-1.7-1.6-2.3-1.7-3-.6-1.2,2-17,2.6-19,.7-.8-.7-2.8-2-4.4-2.8-10-5.2-10.1-25.8-.2-33.3,5.4-4,18.8-6.2,21.5-3.5.8.8,1.5.8,2.8-.3,1-.8,1.5-.9,1.1-.3-.4.7,0,1.7.8,2.4,2.1,1.8,2.7-.2,2.3-9.1-.4-8.8-.1-8.7-15.8-8.8-7.5,0-11.9.5-15.3,1.7Zm16,9.4c-.3.8-.6.5-.6-.6-.1-1.1.2-1.7.5-1.3.3.3.4,1.2.1,1.9Z"/>
  <path class="cls-1" d="m374.5,132.7c.1,15.6.4,20.7,1.3,20.5.7-.1,1.2.5,1.2,1.3s-.6,1.5-1.3,1.5c-.9,0-1.2,3-1.1,12.7.1,7.1.2,13.1.3,13.5,0,.5,3.5.8,7.6.8h7.5v-47.5l3.8,5.7c2,3.2,4.2,5.8,4.9,5.8s1,.6.7,1.4c-.7,1.9,1.2,5.4,4.7,8.8,1.5,1.5,4.2,5.4,6,8.7,3.1,5.7,3.3,5.9,6.8,5.5,2-.2,2.7-.1,1.6.2-1.1.4-2.3,1.1-2.6,1.6-.7,1.1,3.3,7.7,5.3,8.9.7.4,4.9.8,9.5.8l8.3.1v-71h-4.4c-2.6,0-4.6.5-4.9,1.2-.4,1-.6,1-.6,0-.1-1.3-5-1.7-5.2-.5-.1.5-.2,8.8-.3,18.5-.1,13.2.2,17.8,1.1,17.8.6,0,1.5-.9,1.8-2s1.1-2,1.7-2,.7.7.3,1.7-1,2.6-1.2,3.5c-.3,1-1.2,1.8-1.9,1.8-1.4,0-1.7.9-1.5,4.5,0,1.1-.2,1.4-.5.7-.3-.6-1.1-1.2-1.8-1.2s-2.3-2.2-3.6-5-2.7-5-3.2-5c-.4,0-.8-.5-.8-1.2,0-.6-1.1-2.5-2.3-4.2-1.3-1.7-3.2-4.8-4.2-6.9-.9-2-2.1-3.7-2.6-3.7-.8,0-7.1-9.1-10-14.5-1.6-3-1.7-3-11-3.3l-9.4-.3v20.8Zm57.2,2.5c-.3.7-.5.2-.5-1.2s.2-1.9.5-1.3c.2.7.2,1.9,0,2.5Zm-26,6.4c-.3.3-1.2.4-1.9.1-.8-.3-.5-.6.6-.6,1.1-.1,1.7.2,1.3.5Zm28.3,2.4c0,.5-.4,1-1,1-.5,0-1-.5-1-1,0-.6.5-1,1-1,.6,0,1,.4,1,1Zm1,15.4c0,.3-.4.8-1,1.1-.5.3-1,.1-1-.4,0-.6.5-1.1,1-1.1.6,0,1,.2,1,.4Zm-11.5,10.6c.3.5.1,1-.4,1-.6,0-1.1-.5-1.1-1,0-.6.2-1,.4-1,.3,0,.8.4,1.1,1Zm4.9-.3c-.5.5-1.2,1.2-1.5,1.6-.3.5-.9.2-1.2-.7-.5-1.2,0-1.6,1.5-1.6,1.2,0,1.7.3,1.2.7Z"/>
  <path class="cls-1" d="m443,113.8c0,1.9,7.6,18.3,8.9,19.2.4.3,1,1.4,1.3,2.5.4,1.1,2.9,7.2,5.7,13.5l5.1,11.4v22.6h8c4.4,0,8.1-.3,8.1-.8.1-.4.3-5.7.5-11.7.4-13,.5-13.5,1.6-13.5.5,0,.6-.5.3-1-.3-.6-.1-1,.5-1s.8-.5.5-1c-.3-.6.2-1,1.1-1,1,0,1.5-.3,1.1-.6-.3-.4,1.4-4.6,3.9-9.5,2.4-4.9,4.2-8.9,3.9-8.9-.7,0,5.5-12.4,6.6-13,.8-.6,2.9-5.5,2.9-7.1,0-.5-3.7-.9-8.3-.9-7,0-8.5.3-10,2-.9,1.1-1.7,2.3-1.7,2.6,0,.6-2.8,7.5-7.3,17.7-2.1,4.9-3.2,4.8-4.2-.4-.3-1.2-1.2-3.3-2.2-4.8-1-1.4-1.6-2.9-1.5-3.4.1-.4-.3-.7-.9-.7-.5,0-.7-.5-.4-1,.3-.6.1-1-.5-1s-.8-.5-.5-1c.3-.6.1-1-.4-1-.6,0-1-.6-.8-1.3.1-.6-.3-1.1-.9-1s-1-1-.9-2.5c.2-4-1.7-5.2-8.1-5.2-4.2,0-6,.4-7,1.7-1.3,1.7-1.4,1.7-.8,0,.5-1.3.1-1.7-1.5-1.7-1.4,0-2.1.6-2.1,1.8Z"/>
  <path class="cls-1" d="m135,117.8c0,1.8,2.6,4.5,4.8,4.9,1.8.4,1.4-.9-1.3-4-2.8-3.2-3.5-3.4-3.5-.9Z"/>
  <path class="cls-1" d="m140.5,124.9c-.8,1.4,1.6,6.1,3.2,6.1,1,0,1.1.5.4,1.8s-.6,2.3.1,3,1.3,2.1,1.5,3.3c.2,1.1,1,3.1,1.9,4.2,1.5,2.1,1.6,1.9,1-4-.9-9.3-5.8-18.1-8.1-14.4Z"/>
  <path class="cls-1" d="m157,172c0,.5.5,1,1,1,.6,0,1-.5,1-1,0-.6-.4-1-1-1-.5,0-1,.4-1,1Z"/>
  <path class="cls-1" d="m156.1,181.6c0,1.1.3,1.4.6.6.3-.7.2-1.6-.1-1.9-.3-.4-.6.2-.5,1.3Z"/>
</svg>